<mxfile host="app.diagrams.net" modified="2024-03-07T07:39:37.754Z" agent="Mozilla/5.0 (Windows NT 10.0; Win64; x64) AppleWebKit/537.36 (KHTML, like Gecko) Chrome/121.0.0.0 Safari/537.36" etag="e06TvgzLEbFb3dqTT9us" version="23.1.7" type="github">
  <diagram name="Page-1" id="7G-Kw1srW0fVWj_SxOim">
    <mxGraphModel dx="1311" dy="595" grid="1" gridSize="10" guides="1" tooltips="1" connect="1" arrows="1" fold="1" page="1" pageScale="1" pageWidth="850" pageHeight="1100" math="0" shadow="0">
      <root>
        <mxCell id="0" />
        <mxCell id="1" parent="0" />
        <mxCell id="3erMpisCx-1nsQBFbhVN-1" value="server" style="rounded=0;whiteSpace=wrap;html=1;" vertex="1" parent="1">
          <mxGeometry x="10" y="40" width="120" height="80" as="geometry" />
        </mxCell>
        <mxCell id="3erMpisCx-1nsQBFbhVN-2" value="client" style="rounded=0;whiteSpace=wrap;html=1;" vertex="1" parent="1">
          <mxGeometry x="240" y="40" width="120" height="80" as="geometry" />
        </mxCell>
        <mxCell id="3erMpisCx-1nsQBFbhVN-3" value="" style="endArrow=classic;startArrow=classic;html=1;rounded=0;exitX=1;exitY=0.5;exitDx=0;exitDy=0;entryX=0;entryY=0.5;entryDx=0;entryDy=0;" edge="1" parent="1" source="3erMpisCx-1nsQBFbhVN-1" target="3erMpisCx-1nsQBFbhVN-2">
          <mxGeometry width="50" height="50" relative="1" as="geometry">
            <mxPoint x="420" y="220" as="sourcePoint" />
            <mxPoint x="470" y="170" as="targetPoint" />
            <Array as="points" />
          </mxGeometry>
        </mxCell>
        <mxCell id="3erMpisCx-1nsQBFbhVN-5" value="socket (protocol)" style="text;html=1;align=center;verticalAlign=middle;whiteSpace=wrap;rounded=0;" vertex="1" parent="1">
          <mxGeometry x="140" y="40" width="90" height="30" as="geometry" />
        </mxCell>
        <mxCell id="3erMpisCx-1nsQBFbhVN-49" style="edgeStyle=orthogonalEdgeStyle;rounded=0;orthogonalLoop=1;jettySize=auto;html=1;exitX=1;exitY=0.5;exitDx=0;exitDy=0;" edge="1" parent="1" source="3erMpisCx-1nsQBFbhVN-7">
          <mxGeometry relative="1" as="geometry">
            <mxPoint x="260" y="270" as="targetPoint" />
          </mxGeometry>
        </mxCell>
        <mxCell id="3erMpisCx-1nsQBFbhVN-7" value="" style="rounded=0;whiteSpace=wrap;html=1;" vertex="1" parent="1">
          <mxGeometry x="10" y="160" width="190" height="200" as="geometry" />
        </mxCell>
        <mxCell id="3erMpisCx-1nsQBFbhVN-8" value="&lt;font style=&quot;font-size: 18px;&quot;&gt;server&lt;/font&gt;" style="text;html=1;align=center;verticalAlign=middle;whiteSpace=wrap;rounded=0;" vertex="1" parent="1">
          <mxGeometry x="65" y="150" width="80" height="50" as="geometry" />
        </mxCell>
        <mxCell id="3erMpisCx-1nsQBFbhVN-9" value="public: javaScript files with client logic, html/css" style="rounded=0;whiteSpace=wrap;html=1;" vertex="1" parent="1">
          <mxGeometry x="30" y="200" width="150" height="60" as="geometry" />
        </mxCell>
        <mxCell id="3erMpisCx-1nsQBFbhVN-10" value="src: files contain logic to help players communicate with each other" style="rounded=0;whiteSpace=wrap;html=1;" vertex="1" parent="1">
          <mxGeometry x="30" y="280" width="150" height="60" as="geometry" />
        </mxCell>
        <mxCell id="3erMpisCx-1nsQBFbhVN-11" value="client" style="rounded=0;whiteSpace=wrap;html=1;" vertex="1" parent="1">
          <mxGeometry x="660" y="157.5" width="120" height="80" as="geometry" />
        </mxCell>
        <mxCell id="3erMpisCx-1nsQBFbhVN-12" value="client" style="rounded=0;whiteSpace=wrap;html=1;" vertex="1" parent="1">
          <mxGeometry x="660" y="42.5" width="120" height="80" as="geometry" />
        </mxCell>
        <mxCell id="3erMpisCx-1nsQBFbhVN-15" value="" style="rounded=0;whiteSpace=wrap;html=1;" vertex="1" parent="1">
          <mxGeometry x="430" y="40" width="130" height="200" as="geometry" />
        </mxCell>
        <mxCell id="3erMpisCx-1nsQBFbhVN-16" value="&lt;font style=&quot;font-size: 18px;&quot;&gt;server&lt;/font&gt;" style="text;html=1;align=center;verticalAlign=middle;whiteSpace=wrap;rounded=0;" vertex="1" parent="1">
          <mxGeometry x="455" y="30" width="80" height="50" as="geometry" />
        </mxCell>
        <mxCell id="3erMpisCx-1nsQBFbhVN-17" value="" style="rounded=0;whiteSpace=wrap;html=1;" vertex="1" parent="1">
          <mxGeometry x="455" y="90" width="80" height="90" as="geometry" />
        </mxCell>
        <mxCell id="3erMpisCx-1nsQBFbhVN-18" value="&lt;font style=&quot;font-size: 12px;&quot;&gt;socket room for 2 players&lt;/font&gt;" style="text;html=1;align=center;verticalAlign=middle;whiteSpace=wrap;rounded=0;" vertex="1" parent="1">
          <mxGeometry x="455" y="90" width="80" height="50" as="geometry" />
        </mxCell>
        <mxCell id="3erMpisCx-1nsQBFbhVN-19" value="" style="endArrow=classic;startArrow=classic;html=1;rounded=0;entryX=0;entryY=0.5;entryDx=0;entryDy=0;exitX=1;exitY=0.75;exitDx=0;exitDy=0;" edge="1" parent="1" source="3erMpisCx-1nsQBFbhVN-18" target="3erMpisCx-1nsQBFbhVN-12">
          <mxGeometry width="50" height="50" relative="1" as="geometry">
            <mxPoint x="570" y="270" as="sourcePoint" />
            <mxPoint x="620" y="220" as="targetPoint" />
            <Array as="points" />
          </mxGeometry>
        </mxCell>
        <mxCell id="3erMpisCx-1nsQBFbhVN-20" value="" style="endArrow=classic;startArrow=classic;html=1;rounded=0;entryX=0;entryY=0.5;entryDx=0;entryDy=0;exitX=1;exitY=1;exitDx=0;exitDy=0;" edge="1" parent="1" source="3erMpisCx-1nsQBFbhVN-18" target="3erMpisCx-1nsQBFbhVN-11">
          <mxGeometry width="50" height="50" relative="1" as="geometry">
            <mxPoint x="545" y="138" as="sourcePoint" />
            <mxPoint x="670" y="93" as="targetPoint" />
            <Array as="points" />
          </mxGeometry>
        </mxCell>
        <mxCell id="3erMpisCx-1nsQBFbhVN-22" value="&lt;font style=&quot;font-size: 18px;&quot;&gt;Client game logic&lt;/font&gt;" style="text;html=1;align=center;verticalAlign=middle;whiteSpace=wrap;rounded=0;" vertex="1" parent="1">
          <mxGeometry x="120" y="400" width="190" height="30" as="geometry" />
        </mxCell>
        <mxCell id="3erMpisCx-1nsQBFbhVN-27" value="There will be 2 stages: preparing stage and actual gameplay" style="text;html=1;align=center;verticalAlign=middle;whiteSpace=wrap;rounded=0;" vertex="1" parent="1">
          <mxGeometry x="95" y="440" width="240" height="30" as="geometry" />
        </mxCell>
        <mxCell id="3erMpisCx-1nsQBFbhVN-58" style="edgeStyle=orthogonalEdgeStyle;rounded=0;orthogonalLoop=1;jettySize=auto;html=1;exitX=0.505;exitY=1.022;exitDx=0;exitDy=0;exitPerimeter=0;" edge="1" parent="1" source="3erMpisCx-1nsQBFbhVN-31" target="3erMpisCx-1nsQBFbhVN-41">
          <mxGeometry relative="1" as="geometry">
            <mxPoint x="220" y="490" as="sourcePoint" />
          </mxGeometry>
        </mxCell>
        <mxCell id="3erMpisCx-1nsQBFbhVN-28" value="Game" style="swimlane;fontStyle=1;align=center;verticalAlign=top;childLayout=stackLayout;horizontal=1;startSize=32;horizontalStack=0;resizeParent=1;resizeParentMax=0;resizeLast=0;collapsible=1;marginBottom=0;whiteSpace=wrap;html=1;" vertex="1" parent="1">
          <mxGeometry x="140" y="478" width="160" height="154" as="geometry" />
        </mxCell>
        <mxCell id="3erMpisCx-1nsQBFbhVN-29" value="+ myCells: Node[]&lt;br style=&quot;border-color: var(--border-color);&quot;&gt;+ enemyCells: Node[]&lt;br&gt;+&amp;nbsp;socketId&lt;br&gt;+ room: string" style="text;strokeColor=none;fillColor=none;align=left;verticalAlign=top;spacingLeft=4;spacingRight=4;overflow=hidden;rotatable=0;points=[[0,0.5],[1,0.5]];portConstraint=eastwest;whiteSpace=wrap;html=1;" vertex="1" parent="3erMpisCx-1nsQBFbhVN-28">
          <mxGeometry y="32" width="160" height="68" as="geometry" />
        </mxCell>
        <mxCell id="3erMpisCx-1nsQBFbhVN-30" value="" style="line;strokeWidth=1;fillColor=none;align=left;verticalAlign=middle;spacingTop=-1;spacingLeft=3;spacingRight=3;rotatable=0;labelPosition=right;points=[];portConstraint=eastwest;strokeColor=inherit;" vertex="1" parent="3erMpisCx-1nsQBFbhVN-28">
          <mxGeometry y="100" width="160" height="8" as="geometry" />
        </mxCell>
        <mxCell id="3erMpisCx-1nsQBFbhVN-31" value="+ prepareStage(): void&lt;br&gt;+ gamePlayStage():void" style="text;strokeColor=none;fillColor=none;align=left;verticalAlign=top;spacingLeft=4;spacingRight=4;overflow=hidden;rotatable=0;points=[[0,0.5],[1,0.5]];portConstraint=eastwest;whiteSpace=wrap;html=1;" vertex="1" parent="3erMpisCx-1nsQBFbhVN-28">
          <mxGeometry y="108" width="160" height="46" as="geometry" />
        </mxCell>
        <mxCell id="3erMpisCx-1nsQBFbhVN-33" value="GameLogic" style="swimlane;fontStyle=1;align=center;verticalAlign=top;childLayout=stackLayout;horizontal=1;startSize=26;horizontalStack=0;resizeParent=1;resizeParentMax=0;resizeLast=0;collapsible=1;marginBottom=0;whiteSpace=wrap;html=1;" vertex="1" parent="1">
          <mxGeometry x="390" y="478" width="210" height="210" as="geometry" />
        </mxCell>
        <mxCell id="3erMpisCx-1nsQBFbhVN-34" value="+ existingShips&lt;br&gt;+ field:number[][]" style="text;strokeColor=none;fillColor=none;align=left;verticalAlign=top;spacingLeft=4;spacingRight=4;overflow=hidden;rotatable=0;points=[[0,0.5],[1,0.5]];portConstraint=eastwest;whiteSpace=wrap;html=1;" vertex="1" parent="3erMpisCx-1nsQBFbhVN-33">
          <mxGeometry y="26" width="210" height="56" as="geometry" />
        </mxCell>
        <mxCell id="3erMpisCx-1nsQBFbhVN-35" value="" style="line;strokeWidth=1;fillColor=none;align=left;verticalAlign=middle;spacingTop=-1;spacingLeft=3;spacingRight=3;rotatable=0;labelPosition=right;points=[];portConstraint=eastwest;strokeColor=inherit;" vertex="1" parent="3erMpisCx-1nsQBFbhVN-33">
          <mxGeometry y="82" width="210" height="8" as="geometry" />
        </mxCell>
        <mxCell id="3erMpisCx-1nsQBFbhVN-36" value="+ placeShip(Ship): type&lt;br&gt;+ attackShip(x,y): boolean&lt;br&gt;+ checkExistingShips():Ship[]&lt;br&gt;+&amp;nbsp;checkForBarriers(Ship):boolean&lt;br&gt;+&amp;nbsp;removeShip(Ship):boolean&lt;br&gt;+ createShip(x,y,direction,type):Ship" style="text;strokeColor=none;fillColor=none;align=left;verticalAlign=top;spacingLeft=4;spacingRight=4;overflow=hidden;rotatable=0;points=[[0,0.5],[1,0.5]];portConstraint=eastwest;whiteSpace=wrap;html=1;" vertex="1" parent="3erMpisCx-1nsQBFbhVN-33">
          <mxGeometry y="90" width="210" height="120" as="geometry" />
        </mxCell>
        <mxCell id="3erMpisCx-1nsQBFbhVN-37" value="Ship" style="swimlane;fontStyle=1;align=center;verticalAlign=top;childLayout=stackLayout;horizontal=1;startSize=26;horizontalStack=0;resizeParent=1;resizeParentMax=0;resizeLast=0;collapsible=1;marginBottom=0;whiteSpace=wrap;html=1;" vertex="1" parent="1">
          <mxGeometry x="470" y="720" width="160" height="184" as="geometry" />
        </mxCell>
        <mxCell id="3erMpisCx-1nsQBFbhVN-38" value="+ x: number&lt;br&gt;+ y: number&lt;br&gt;+ direction: string&lt;br&gt;+ startCord: number&lt;br&gt;+ endCord: number&lt;br&gt;+ id: number&lt;br&gt;+ allShipCords:number[]" style="text;strokeColor=none;fillColor=none;align=left;verticalAlign=top;spacingLeft=4;spacingRight=4;overflow=hidden;rotatable=0;points=[[0,0.5],[1,0.5]];portConstraint=eastwest;whiteSpace=wrap;html=1;" vertex="1" parent="3erMpisCx-1nsQBFbhVN-37">
          <mxGeometry y="26" width="160" height="124" as="geometry" />
        </mxCell>
        <mxCell id="3erMpisCx-1nsQBFbhVN-39" value="" style="line;strokeWidth=1;fillColor=none;align=left;verticalAlign=middle;spacingTop=-1;spacingLeft=3;spacingRight=3;rotatable=0;labelPosition=right;points=[];portConstraint=eastwest;strokeColor=inherit;" vertex="1" parent="3erMpisCx-1nsQBFbhVN-37">
          <mxGeometry y="150" width="160" height="8" as="geometry" />
        </mxCell>
        <mxCell id="3erMpisCx-1nsQBFbhVN-40" value="+&amp;nbsp;setShipCords&lt;span style=&quot;background-color: initial;&quot;&gt;(): number[]&lt;/span&gt;" style="text;strokeColor=none;fillColor=none;align=left;verticalAlign=top;spacingLeft=4;spacingRight=4;overflow=hidden;rotatable=0;points=[[0,0.5],[1,0.5]];portConstraint=eastwest;whiteSpace=wrap;html=1;" vertex="1" parent="3erMpisCx-1nsQBFbhVN-37">
          <mxGeometry y="158" width="160" height="26" as="geometry" />
        </mxCell>
        <mxCell id="3erMpisCx-1nsQBFbhVN-41" value="PrepareStage" style="swimlane;fontStyle=1;align=center;verticalAlign=top;childLayout=stackLayout;horizontal=1;startSize=26;horizontalStack=0;resizeParent=1;resizeParentMax=0;resizeLast=0;collapsible=1;marginBottom=0;whiteSpace=wrap;html=1;" vertex="1" parent="1">
          <mxGeometry x="240" y="720" width="170" height="290" as="geometry" />
        </mxCell>
        <mxCell id="3erMpisCx-1nsQBFbhVN-42" value="+ shipsHTML: Node[]&lt;br&gt;+ ship: Ship&lt;br&gt;+ shipsCount: number[]" style="text;strokeColor=none;fillColor=none;align=left;verticalAlign=top;spacingLeft=4;spacingRight=4;overflow=hidden;rotatable=0;points=[[0,0.5],[1,0.5]];portConstraint=eastwest;whiteSpace=wrap;html=1;" vertex="1" parent="3erMpisCx-1nsQBFbhVN-41">
          <mxGeometry y="26" width="170" height="114" as="geometry" />
        </mxCell>
        <mxCell id="3erMpisCx-1nsQBFbhVN-43" value="" style="line;strokeWidth=1;fillColor=none;align=left;verticalAlign=middle;spacingTop=-1;spacingLeft=3;spacingRight=3;rotatable=0;labelPosition=right;points=[];portConstraint=eastwest;strokeColor=inherit;" vertex="1" parent="3erMpisCx-1nsQBFbhVN-41">
          <mxGeometry y="140" width="170" height="8" as="geometry" />
        </mxCell>
        <mxCell id="3erMpisCx-1nsQBFbhVN-44" value="+ finishPrepareStage():void&lt;br&gt;+ setCurrentShip():void&lt;br&gt;+ chooseShip(e:Event):void&lt;br&gt;+ renderShips():void&lt;br&gt;+ clearEvents():void&lt;br&gt;+ placeShip():void&lt;br&gt;+ incrementShipCount():void&lt;br&gt;+ updateShipsDOM():void" style="text;strokeColor=none;fillColor=none;align=left;verticalAlign=top;spacingLeft=4;spacingRight=4;overflow=hidden;rotatable=0;points=[[0,0.5],[1,0.5]];portConstraint=eastwest;whiteSpace=wrap;html=1;" vertex="1" parent="3erMpisCx-1nsQBFbhVN-41">
          <mxGeometry y="148" width="170" height="142" as="geometry" />
        </mxCell>
        <mxCell id="3erMpisCx-1nsQBFbhVN-45" value="GameplayStage" style="swimlane;fontStyle=1;align=center;verticalAlign=top;childLayout=stackLayout;horizontal=1;startSize=26;horizontalStack=0;resizeParent=1;resizeParentMax=0;resizeLast=0;collapsible=1;marginBottom=0;whiteSpace=wrap;html=1;" vertex="1" parent="1">
          <mxGeometry x="40" y="720" width="160" height="124" as="geometry" />
        </mxCell>
        <mxCell id="3erMpisCx-1nsQBFbhVN-46" value="+ field: type" style="text;strokeColor=none;fillColor=none;align=left;verticalAlign=top;spacingLeft=4;spacingRight=4;overflow=hidden;rotatable=0;points=[[0,0.5],[1,0.5]];portConstraint=eastwest;whiteSpace=wrap;html=1;" vertex="1" parent="3erMpisCx-1nsQBFbhVN-45">
          <mxGeometry y="26" width="160" height="64" as="geometry" />
        </mxCell>
        <mxCell id="3erMpisCx-1nsQBFbhVN-47" value="" style="line;strokeWidth=1;fillColor=none;align=left;verticalAlign=middle;spacingTop=-1;spacingLeft=3;spacingRight=3;rotatable=0;labelPosition=right;points=[];portConstraint=eastwest;strokeColor=inherit;" vertex="1" parent="3erMpisCx-1nsQBFbhVN-45">
          <mxGeometry y="90" width="160" height="8" as="geometry" />
        </mxCell>
        <mxCell id="3erMpisCx-1nsQBFbhVN-48" value="+ method(type): type" style="text;strokeColor=none;fillColor=none;align=left;verticalAlign=top;spacingLeft=4;spacingRight=4;overflow=hidden;rotatable=0;points=[[0,0.5],[1,0.5]];portConstraint=eastwest;whiteSpace=wrap;html=1;" vertex="1" parent="3erMpisCx-1nsQBFbhVN-45">
          <mxGeometry y="98" width="160" height="26" as="geometry" />
        </mxCell>
        <mxCell id="3erMpisCx-1nsQBFbhVN-59" style="edgeStyle=orthogonalEdgeStyle;rounded=0;orthogonalLoop=1;jettySize=auto;html=1;exitX=0.498;exitY=1.073;exitDx=0;exitDy=0;exitPerimeter=0;entryX=0.446;entryY=-0.01;entryDx=0;entryDy=0;entryPerimeter=0;" edge="1" parent="1" source="3erMpisCx-1nsQBFbhVN-31" target="3erMpisCx-1nsQBFbhVN-45">
          <mxGeometry relative="1" as="geometry">
            <mxPoint x="30" y="625" as="sourcePoint" />
            <mxPoint x="134" y="720" as="targetPoint" />
            <Array as="points">
              <mxPoint x="200" y="635" />
              <mxPoint x="200" y="672" />
              <mxPoint x="111" y="672" />
            </Array>
          </mxGeometry>
        </mxCell>
      </root>
    </mxGraphModel>
  </diagram>
</mxfile>
